<?xml version="1.0" encoding="UTF-8"?>
<svg xmlns="http://www.w3.org/2000/svg" xmlns:xlink="http://www.w3.org/1999/xlink" version="1.1" viewBox="0 0 2665.3 2000">
  <!-- Generator: Adobe Illustrator 29.8.2, SVG Export Plug-In . SVG Version: 2.1.1 Build 3)  -->
  <defs>
    <style>
      .st0 {
        fill: url(#linear-gradient6);
      }

      .st0, .st1, .st2, .st3, .st4, .st5, .st6, .st7, .st8, .st9, .st10, .st11 {
        opacity: .8;
      }

      .st1 {
        fill: url(#linear-gradient8);
      }

      .st2 {
        fill: url(#linear-gradient3);
      }

      .st3 {
        fill: url(#linear-gradient7);
      }

      .st4 {
        fill: url(#linear-gradient4);
      }

      .st5 {
        fill: url(#linear-gradient5);
      }

      .st6 {
        fill: url(#linear-gradient9);
      }

      .st7 {
        fill: url(#linear-gradient1);
      }

      .st8 {
        fill: url(#linear-gradient2);
      }

      .st12 {
        fill: #0b94cc;
      }

      .st13 {
        fill: #2f525c;
      }

      .st9 {
        fill: url(#linear-gradient);
      }

      .st10 {
        fill: url(#linear-gradient10);
      }

      .st11 {
        fill: url(#linear-gradient11);
      }
    </style>
    <linearGradient id="linear-gradient" x1="2425.7" y1="-874.3" x2="2531.1" y2="-874.3" gradientTransform="translate(3245.5 254.8) rotate(-180)" gradientUnits="userSpaceOnUse">
      <stop offset="0" stop-color="#0072b9"/>
      <stop offset="1" stop-color="#60cbf5"/>
    </linearGradient>
    <linearGradient id="linear-gradient1" x1="2425.7" y1="-857.4" x2="2531.1" y2="-857.4" xlink:href="#linear-gradient"/>
    <linearGradient id="linear-gradient2" x1="1228.2" y1="-1211.3" x2="1333.6" y2="-1211.3" gradientTransform="translate(2323.8 1596.5) rotate(-120)" xlink:href="#linear-gradient"/>
    <linearGradient id="linear-gradient3" x1="1228.2" y1="-1194.4" x2="1333.6" y2="-1194.4" gradientTransform="translate(2323.8 1596.5) rotate(-120)" xlink:href="#linear-gradient"/>
    <linearGradient id="linear-gradient4" x1="337.6" y1="-342.7" x2="442.9" y2="-342.7" gradientTransform="translate(701 1469) rotate(-60)" xlink:href="#linear-gradient"/>
    <linearGradient id="linear-gradient5" x1="337.6" y1="-325.8" x2="442.9" y2="-325.8" gradientTransform="translate(701 1469) rotate(-60)" xlink:href="#linear-gradient"/>
    <linearGradient id="linear-gradient6" x1="644.5" y1="862.9" x2="749.8" y2="862.9" gradientTransform="matrix(1,0,0,1,0,0)" xlink:href="#linear-gradient"/>
    <linearGradient id="linear-gradient7" x1="644.5" y1="879.8" x2="749.8" y2="879.8" gradientTransform="matrix(1,0,0,1,0,0)" xlink:href="#linear-gradient"/>
    <linearGradient id="linear-gradient8" x1="1842" y1="1199.9" x2="1947.3" y2="1199.9" gradientTransform="translate(921.7 -1341.6) rotate(60)" xlink:href="#linear-gradient"/>
    <linearGradient id="linear-gradient9" x1="1842" y1="1216.8" x2="1947.3" y2="1216.8" gradientTransform="translate(921.7 -1341.6) rotate(60)" xlink:href="#linear-gradient"/>
    <linearGradient id="linear-gradient10" x1="2732.6" y1="331.3" x2="2837.9" y2="331.3" gradientTransform="translate(2544.5 -1214.2) rotate(120)" xlink:href="#linear-gradient"/>
    <linearGradient id="linear-gradient11" x1="2732.6" y1="348.2" x2="2837.9" y2="348.2" gradientTransform="translate(2544.5 -1214.2) rotate(120)" xlink:href="#linear-gradient"/>
  </defs>
  <g id="Layer_1" image-rendering="optimizeQuality" shape-rendering="geometricPrecision" text-rendering="geometricPrecision">
    <g>
      <rect class="st12" x="980" y="791.1" width="5.4" height="417.8"/>
      <g>
        <path class="st12" d="M1203.7,1180.4l-20.2-48.2v48.2h-5v-56.4h6.9l20.6,49.6,20.6-49.6h6.9v56.4h-5v-48.2l-20.2,48.2h-4.6Z"/>
        <path class="st12" d="M1259.7,1181.1c-2.2,0-4.2-.2-6.2-.6-2-.4-3.8-1.1-5.3-2-1.6-.9-2.8-2.1-3.8-3.6-1-1.5-1.4-3.4-1.4-5.6,0-4.5,1.7-7.6,5.2-9.6,3.5-1.9,8-2.9,13.8-2.9s2.3,0,3.8.2c1.5.1,2.7.3,3.7.4v-.4c0-3.6-.9-6.2-2.6-7.8-1.7-1.6-4.3-2.3-7.9-2.3s-2,0-3.1.3c-1.1.2-2.1.4-3.2.7-1.1.3-2.1.6-3,1-.9.4-2.3,1.1-4,2l.2-5.4c2.4-1.2,4.7-2.1,7-2.6,2.3-.5,4.4-.7,6.3-.7,5,0,8.7,1.1,11.2,3.4,2.5,2.3,3.7,5.9,3.7,10.8v21.9c-2.3.9-4.7,1.6-7.1,2.1-2.4.4-4.9.7-7.4.7ZM1269.4,1162.3c-.6-.1-1.8-.3-3.5-.5-1.7-.2-3.3-.3-4.8-.3s-3.4.1-5,.3c-1.6.2-3,.6-4.2,1.1-1.2.5-2.2,1.3-2.9,2.3-.7,1-1,2.3-1,3.9s.3,2.6.9,3.5c.6.9,1.4,1.6,2.4,2.2,1,.6,2.2,1,3.6,1.2,1.4.2,2.9.3,4.5.3s3.7-.2,5.5-.5c1.8-.3,3.3-.7,4.5-1.1v-12.5Z"/>
        <path class="st12" d="M1284.7,1143.9c3.1-.6,5.8-1,8.4-1.3,2.5-.3,4.9-.4,7.1-.4s4.4.2,6.4.7c2,.4,3.6,1.3,5.1,2.5,1.4,1.2,2.5,2.8,3.2,4.9.7,2,1.1,4.6,1.1,7.7v22.5h-4.8v-20.4c0-2.7-.3-5-.8-6.6-.5-1.7-1.2-3-2.2-3.9-.9-.9-2.1-1.6-3.5-2-1.4-.4-3-.6-4.9-.6-3.2,0-6.7.4-10.4,1.1v32.4h-4.8v-36.5Z"/>
        <path class="st12" d="M1340,1181.1c-2.2,0-4.2-.2-6.2-.6-2-.4-3.8-1.1-5.3-2-1.6-.9-2.8-2.1-3.8-3.6-1-1.5-1.4-3.4-1.4-5.6,0-4.5,1.7-7.6,5.2-9.6,3.5-1.9,8-2.9,13.8-2.9s2.3,0,3.8.2c1.5.1,2.7.3,3.7.4v-.4c0-3.6-.9-6.2-2.6-7.8-1.7-1.6-4.3-2.3-7.9-2.3s-2,0-3.1.3c-1.1.2-2.1.4-3.2.7-1.1.3-2.1.6-3,1-.9.4-2.3,1.1-4,2l.2-5.4c2.4-1.2,4.7-2.1,7-2.6,2.3-.5,4.4-.7,6.3-.7,5,0,8.7,1.1,11.2,3.4,2.5,2.3,3.7,5.9,3.7,10.8v21.9c-2.3.9-4.7,1.6-7.1,2.1-2.4.4-4.9.7-7.4.7ZM1349.7,1162.3c-.6-.1-1.8-.3-3.5-.5-1.7-.2-3.3-.3-4.8-.3s-3.4.1-5,.3c-1.6.2-3,.6-4.2,1.1-1.2.5-2.2,1.3-2.9,2.3-.7,1-1,2.3-1,3.9s.3,2.6.9,3.5c.6.9,1.4,1.6,2.4,2.2,1,.6,2.2,1,3.6,1.2,1.4.2,2.9.3,4.5.3s3.7-.2,5.5-.5c1.8-.3,3.3-.7,4.5-1.1v-12.5Z"/>
        <path class="st12" d="M1361.9,1169c-.9-2.4-1.3-4.9-1.3-7.6s.4-5.2,1.3-7.5c.9-2.4,2.2-4.4,4-6.1,1.8-1.7,4.1-3.1,6.8-4.1,2.7-1,5.9-1.5,9.5-1.5s3.6.2,5.8.5c2.1.3,4.3.8,6.5,1.4v37.4c0,4.9-1.5,8.6-4.4,10.8-2.9,2.3-6.8,3.4-11.7,3.4s-2.1,0-3.2-.2c-1.1-.1-2.2-.3-3.3-.5-1.1-.2-2.2-.5-3.2-.8-1.1-.3-2.1-.8-3.3-1.3l-.9-5.9c1.8,1,3.2,1.7,4.2,2.1,1,.4,2,.7,3.1,1,1.1.3,2.1.5,3.2.7,1.1.2,2.1.3,3.1.3,3.6,0,6.4-.8,8.5-2.4,2.1-1.6,3.1-4.2,3.1-7.8v-.5c-2.9.5-5.4.7-7.5.7-3.6,0-6.8-.5-9.5-1.6-2.7-1-5-2.4-6.8-4.2-1.8-1.8-3.1-3.9-4-6.3ZM1389.6,1147.8c-1.1-.2-2.4-.4-3.7-.6-1.4-.2-2.7-.3-3.9-.3-5.6,0-9.7,1.3-12.3,3.9-2.7,2.6-4,6.1-4,10.7s.3,4.3,1,6.2c.7,1.8,1.7,3.4,3,4.7,1.3,1.3,3,2.3,5.1,3,2,.7,4.5,1,7.3,1s2.2,0,3.5-.2c1.3-.1,2.7-.4,4.1-.7v-27.6Z"/>
        <path class="st12" d="M1420.2,1176.4c2.8,0,5.3-.3,7.3-.9,2-.6,4.1-1.6,6.1-2.8l2.3,4.4c-2.3,1.3-4.7,2.4-7,3s-5.2,1-8.7,1-5.3-.5-7.6-1.5c-2.3-1-4.3-2.3-6-4.1-1.7-1.7-3-3.8-4-6.1-1-2.4-1.4-4.9-1.4-7.7s.5-5.5,1.5-7.9c1-2.4,2.3-4.4,4.1-6.1,1.7-1.7,3.7-3.1,6-4,2.3-1,4.8-1.4,7.4-1.4s5.1.5,7.3,1.4c2.2.9,4.1,2.2,5.7,4,1.6,1.7,2.8,3.8,3.7,6.3.9,2.5,1.4,5.5,1.4,9.1h-32.1c0,1.5.4,3.1,1.1,4.9.7,1.8,1.6,3.3,2.9,4.6,1.2,1.3,2.7,2.2,4.4,3,1.7.7,3.5,1.1,5.6,1.1ZM1420.2,1146.9c-2,0-3.8.3-5.4.9-1.6.6-3,1.5-4.1,2.6-1.1,1.1-2,2.4-2.8,3.9-.7,1.5-1.2,2.8-1.3,3.9h26.3c-.1-1.3-.6-2.6-1.2-4.1-.7-1.5-1.6-2.8-2.7-3.9-1.1-1.1-2.4-1.9-3.9-2.5-1.5-.6-3.1-.8-4.9-.8Z"/>
        <path class="st12" d="M1492.9,1159.8c0-2.7-.2-5-.7-6.6-.4-1.7-1.1-3-1.9-3.9-.8-.9-1.9-1.5-3.3-1.9-1.3-.4-2.9-.5-4.8-.5s-1.5,0-2.4.2c-.9.1-1.8.3-2.7.5-.9.2-1.9.5-2.8.8-.9.3-1.6.6-1.8.7.3.7.6,1.9,1,3.4.3,1.6.5,3.4.5,5.4v22.5h-4.8v-20.6c0-2.7-.2-4.9-.7-6.6-.5-1.7-1.1-3-2-3.9-.9-.9-2-1.6-3.3-1.9s-3-.5-4.9-.5-3.1.1-4.4.3c-1.3.2-2.7.5-4.1.8v32.4h-4.8v-36.3l7.7-1.4c2-.4,4-.5,5.9-.5s4.4.2,6.3.7c1.9.4,3.3,1.2,4.4,2.2,1.8-.8,3.9-1.5,6.3-2.1,2.5-.6,4.7-.8,6.8-.8s4.4.2,6.3.7c1.9.4,3.5,1.3,4.8,2.5,1.3,1.2,2.3,2.9,3,4.9.7,2,1,4.6,1,7.7v22.5h-4.8v-20.6Z"/>
        <path class="st12" d="M1522.8,1176.4c2.8,0,5.3-.3,7.3-.9,2-.6,4.1-1.6,6.1-2.8l2.3,4.4c-2.3,1.3-4.7,2.4-7,3-2.4.7-5.2,1-8.7,1s-5.3-.5-7.6-1.5c-2.3-1-4.3-2.3-6-4.1-1.7-1.7-3-3.8-4-6.1-1-2.4-1.4-4.9-1.4-7.7s.5-5.5,1.5-7.9c1-2.4,2.3-4.4,4.1-6.1,1.7-1.7,3.7-3.1,6-4,2.3-1,4.8-1.4,7.4-1.4s5.1.5,7.3,1.4c2.2.9,4.1,2.2,5.7,4,1.6,1.7,2.8,3.8,3.7,6.3.9,2.5,1.4,5.5,1.4,9.1h-32.1c0,1.5.4,3.1,1.1,4.9.7,1.8,1.6,3.3,2.9,4.6,1.2,1.3,2.7,2.2,4.4,3,1.7.7,3.5,1.1,5.6,1.1ZM1522.8,1146.9c-2,0-3.8.3-5.4.9-1.6.6-3,1.5-4.1,2.6-1.1,1.1-2,2.4-2.8,3.9-.7,1.5-1.2,2.8-1.3,3.9h26.3c-.1-1.3-.6-2.6-1.2-4.1-.7-1.5-1.6-2.8-2.7-3.9-1.1-1.1-2.4-1.9-3.9-2.5-1.5-.6-3.1-.8-4.9-.8Z"/>
        <path class="st12" d="M1547.6,1143.9c3.1-.6,5.8-1,8.4-1.3,2.5-.3,4.9-.4,7.1-.4s4.4.2,6.4.7c2,.4,3.6,1.3,5.1,2.5,1.4,1.2,2.5,2.8,3.2,4.9.7,2,1.1,4.6,1.1,7.7v22.5h-4.8v-20.4c0-2.7-.3-5-.8-6.6-.5-1.7-1.2-3-2.2-3.9-.9-.9-2.1-1.6-3.5-2-1.4-.4-3-.6-4.9-.6-3.2,0-6.7.4-10.4,1.1v32.4h-4.8v-36.5Z"/>
        <path class="st12" d="M1583.9,1142.9h8v-13.6h4.8v13.6h15.5v4.7h-15.5v18.3c0,2,.1,3.6.4,4.9.3,1.3.8,2.2,1.4,3,.6.7,1.5,1.2,2.6,1.6,1.1.3,2.4.5,4,.5h7.6v4.7h-7.1c-2,0-3.8-.2-5.4-.6-1.6-.4-3.1-1.1-4.3-2.1-1.3-1-2.2-2.3-2.9-3.9-.7-1.6-1-3.6-1-6v-20.2h-8v-4.7Z"/>
        <path class="st12" d="M1665.8,1127.9c-3.1,0-6.1.5-8.9,1.6-2.8,1.1-5.3,2.7-7.4,4.7-2.1,2.1-3.8,4.6-5.1,7.6-1.3,3-1.9,6.4-1.9,10.3s.6,7.3,1.9,10.3c1.3,3,3,5.5,5.1,7.6,2.1,2.1,4.6,3.6,7.4,4.7,2.8,1.1,5.8,1.6,8.9,1.6s6-.4,8.6-1.1c2.7-.7,5.3-1.9,7.8-3.4l2.2,4.2c-2.9,1.8-5.8,3-8.9,3.8-3.1.8-6.3,1.2-9.8,1.2s-8.4-.8-11.9-2.3c-3.5-1.5-6.5-3.6-9-6.2-2.5-2.6-4.3-5.7-5.7-9.2-1.3-3.5-2-7.3-2-11.3s.7-7.8,2-11.3c1.3-3.5,3.2-6.6,5.7-9.2,2.4-2.6,5.4-4.7,9-6.2,3.5-1.5,7.5-2.3,11.9-2.3s6.7.4,9.8,1.2c3.1.8,6,2.1,8.9,3.8l-2.2,4.2c-2.6-1.5-5.2-2.7-7.8-3.4-2.7-.7-5.5-1.1-8.6-1.1Z"/>
        <path class="st12" d="M1712.4,1179.6c-2.3,1-4.8,1.5-7.5,1.5s-5.2-.5-7.5-1.5c-2.3-1-4.3-2.4-6-4.2-1.7-1.8-3-3.8-4-6.2-1-2.3-1.4-4.9-1.4-7.6s.5-5.2,1.4-7.6c1-2.3,2.3-4.4,4-6.2,1.7-1.8,3.7-3.2,6-4.2,2.3-1,4.8-1.6,7.5-1.6s5.2.5,7.5,1.6c2.3,1,4.3,2.4,6,4.2,1.7,1.8,3,3.8,4,6.2,1,2.3,1.4,4.9,1.4,7.6s-.5,5.2-1.4,7.6c-1,2.3-2.3,4.4-4,6.2-1.7,1.8-3.7,3.2-6,4.2ZM1699.2,1175.2c1.7.8,3.6,1.2,5.7,1.2s4-.4,5.7-1.2c1.7-.8,3.2-1.8,4.4-3.2,1.2-1.3,2.2-2.9,2.8-4.7.7-1.8,1-3.7,1-5.7s-.3-3.9-1-5.7c-.7-1.8-1.6-3.4-2.8-4.7-1.2-1.3-2.7-2.4-4.4-3.2-1.7-.8-3.6-1.2-5.7-1.2s-4,.4-5.7,1.2c-1.7.8-3.2,1.8-4.4,3.2-1.2,1.3-2.2,2.9-2.8,4.7-.7,1.8-1,3.7-1,5.7s.3,3.9,1,5.7c.7,1.8,1.6,3.3,2.8,4.7,1.2,1.3,2.7,2.4,4.4,3.2Z"/>
        <path class="st12" d="M1730.7,1143.9c3.1-.6,5.8-1,8.4-1.3,2.5-.3,4.9-.4,7.1-.4s4.4.2,6.4.7c2,.4,3.6,1.3,5.1,2.5,1.4,1.2,2.5,2.8,3.2,4.9.7,2,1.1,4.6,1.1,7.7v22.5h-4.8v-20.4c0-2.7-.3-5-.8-6.6-.5-1.7-1.2-3-2.2-3.9-.9-.9-2.1-1.6-3.5-2-1.4-.4-3-.6-4.9-.6-3.2,0-6.7.4-10.4,1.1v32.4h-4.8v-36.5Z"/>
        <path class="st12" d="M1783.9,1176.4c1.5,0,2.9-.1,4.2-.3,1.3-.2,2.5-.5,3.4-.9,1-.4,1.7-1,2.3-1.8.5-.8.8-1.8.8-3s-.7-3.1-2-4.1c-1.3-1-3.6-1.9-6.7-2.6l-2.8-.6c-2.3-.5-4.2-1.1-5.9-1.8-1.6-.7-2.9-1.4-4-2.3-1-.9-1.8-1.9-2.2-3.1-.5-1.2-.7-2.5-.7-3.9s.4-2.8,1.1-4c.7-1.2,1.7-2.2,2.9-3.1,1.2-.9,2.7-1.5,4.4-2,1.7-.5,3.5-.7,5.5-.7,5.3,0,10.2,1.2,14.6,3.6l-2.2,4.4c-2.2-1.2-4.2-2.1-6-2.5-1.8-.5-3.9-.7-6.4-.7s-5.1.5-6.5,1.4c-1.5.9-2.2,2.2-2.2,3.7s.6,2.9,1.9,3.8c1.3.9,3.5,1.6,6.8,2.3l2.5.5c2.4.5,4.4,1.2,6.1,1.9,1.7.7,3,1.5,4.1,2.5,1.1.9,1.8,2,2.3,3.3.4,1.3.7,2.6.7,4.1s-.4,3.3-1.1,4.7c-.8,1.3-1.9,2.5-3.3,3.4-1.4.9-3.1,1.6-5,2-1.9.4-4.1.7-6.4.7s-5.1-.3-7.5-.9c-2.3-.6-4.7-1.6-7.1-2.9l2.3-4.6c2.2,1.3,4.3,2.2,6.4,2.8,2.1.6,4.1.8,5.9.8Z"/>
        <path class="st12" d="M1833.6,1142.9h4.8v35.7c-3,.9-5.7,1.5-8.1,1.9-2.4.4-4.7.6-7,.6s-4.4-.2-6.3-.7c-1.9-.5-3.5-1.3-4.8-2.5-1.3-1.2-2.3-2.8-3-4.9-.7-2-1-4.6-1-7.7v-22.4h4.8v20.4c0,2.7.2,5,.7,6.7.4,1.7,1.1,3,1.9,3.9.8.9,1.9,1.5,3.2,1.9,1.3.4,2.9.6,4.8.6s3.2-.1,4.9-.3c1.7-.2,3.4-.6,5.2-1.1v-32Z"/>
        <path class="st12" d="M1849.5,1180.4v-56.4h4.8v56.4h-4.8Z"/>
        <path class="st12" d="M1860.1,1142.9h8v-13.6h4.8v13.6h15.5v4.7h-15.5v18.3c0,2,.1,3.6.4,4.9.3,1.3.8,2.2,1.4,3,.6.7,1.5,1.2,2.6,1.6,1.1.3,2.4.5,4,.5h7.6v4.7h-7.1c-2,0-3.8-.2-5.4-.6-1.6-.4-3.1-1.1-4.3-2.1-1.3-1-2.2-2.3-2.9-3.9-.7-1.6-1-3.6-1-6v-20.2h-8v-4.7Z"/>
        <path class="st12" d="M1910.2,1181.1c-2.2,0-4.2-.2-6.2-.6-2-.4-3.8-1.1-5.3-2-1.6-.9-2.8-2.1-3.8-3.6-1-1.5-1.4-3.4-1.4-5.6,0-4.5,1.7-7.6,5.2-9.6,3.5-1.9,8-2.9,13.8-2.9s2.3,0,3.8.2c1.5.1,2.7.3,3.7.4v-.4c0-3.6-.9-6.2-2.6-7.8-1.7-1.6-4.3-2.3-7.9-2.3s-2,0-3.1.3c-1.1.2-2.1.4-3.2.7-1.1.3-2.1.6-3,1-.9.4-2.3,1.1-4,2l.2-5.4c2.4-1.2,4.7-2.1,7-2.6,2.3-.5,4.4-.7,6.3-.7,5,0,8.7,1.1,11.2,3.4,2.5,2.3,3.7,5.9,3.7,10.8v21.9c-2.3.9-4.7,1.6-7.1,2.1-2.4.4-4.9.7-7.4.7ZM1919.9,1162.3c-.6-.1-1.8-.3-3.5-.5-1.7-.2-3.3-.3-4.8-.3s-3.4.1-5,.3c-1.6.2-3,.6-4.2,1.1-1.2.5-2.2,1.3-2.9,2.3-.7,1-1,2.3-1,3.9s.3,2.6.9,3.5c.6.9,1.4,1.6,2.4,2.2,1,.6,2.2,1,3.6,1.2,1.4.2,2.9.3,4.5.3s3.7-.2,5.5-.5c1.8-.3,3.3-.7,4.5-1.1v-12.5Z"/>
        <path class="st12" d="M1935.2,1143.9c3.1-.6,5.8-1,8.4-1.3,2.5-.3,4.9-.4,7.1-.4s4.4.2,6.4.7c2,.4,3.6,1.3,5.1,2.5,1.4,1.2,2.5,2.8,3.2,4.9.7,2,1.1,4.6,1.1,7.7v22.5h-4.8v-20.4c0-2.7-.3-5-.8-6.6-.5-1.7-1.2-3-2.2-3.9-.9-.9-2.1-1.6-3.5-2-1.4-.4-3-.6-4.9-.6-3.2,0-6.7.4-10.4,1.1v32.4h-4.8v-36.5Z"/>
        <path class="st12" d="M1974,1169.4c-1-2.4-1.5-5-1.5-7.8s.5-5.4,1.5-7.8c1-2.4,2.3-4.4,4-6.2,1.7-1.8,3.7-3.1,6-4.1,2.3-1,4.7-1.4,7.4-1.4s5.1.3,7.2.8c2.1.6,4.2,1.4,6.4,2.7l-2.2,4.4c-1.9-1.2-3.7-2-5.4-2.5-1.7-.5-3.7-.7-6-.7s-3.9.4-5.6,1.1c-1.7.8-3.1,1.8-4.3,3.1-1.2,1.3-2.2,2.9-2.8,4.7-.7,1.8-1,3.8-1,5.9s.3,4.1,1,5.9c.7,1.8,1.6,3.3,2.8,4.7,1.2,1.3,2.7,2.3,4.3,3.1,1.7.7,3.5,1.1,5.6,1.1s4.3-.2,6-.7c1.7-.5,3.5-1.3,5.4-2.5l2.2,4.4c-2.2,1.2-4.3,2.1-6.4,2.7-2.1.6-4.5.8-7.2.8s-5.1-.5-7.4-1.4c-2.3-1-4.3-2.3-6-4-1.7-1.7-3.1-3.8-4-6.1Z"/>
        <path class="st12" d="M2035.5,1179.9c-1.3.3-2.9.6-4.8.8-1.9.2-3.7.4-5.6.4s-4.4-.2-6.3-.7c-1.9-.5-3.5-1.3-4.8-2.5-1.3-1.2-2.3-2.8-3-4.9-.7-2-1-4.6-1-7.7v-22.4h4.8v20.4c0,2.7.2,5,.7,6.7.4,1.7,1.1,3,1.9,3.9.8.9,1.9,1.5,3.2,1.9,1.3.4,2.9.6,4.8.6s3.2-.1,4.9-.3c1.7-.2,3.4-.6,5.2-1.1v-32h4.8v38.5c0,4.9-1.5,8.6-4.4,10.8-2.9,2.3-6.8,3.4-11.7,3.4s-2.1,0-3.2-.2c-1.1-.1-2.2-.3-3.3-.5-1.1-.2-2.2-.5-3.2-.8-1.1-.3-2.1-.8-3.3-1.3l-.9-5.9c1.8,1,3.2,1.7,4.2,2.1,1,.4,2,.7,3.1,1,1.1.3,2.1.5,3.2.7,1.1.2,2.1.3,3.1.3,3.6,0,6.4-.8,8.5-2.4,2.1-1.6,3.1-4.2,3.1-7.8v-.9Z"/>
      </g>
      <g>
        <path class="st13" d="M1548.4,892.7c-14.1,0-26.9,2.8-38.3,8.5-11.4,5.6-20.4,12.4-27.1,20.4v-36.2h-48.8v197.6h48.8v-125c11-14.6,25.1-21.9,42.3-21.9s19.9,2.6,25.8,7.7c5.9,5.1,8.8,13.8,8.8,26.2v113h48.8v-131.9c0-18.5-5.1-32.8-15.2-43.1-10.1-10.2-25.2-15.4-45.2-15.4Z"/>
        <path class="st13" d="M1735.9,892.7c-29.7,0-53.5,9.4-71.3,28.1-17.8,18.7-26.7,41.8-26.7,69.2s8.9,50.6,26.7,69.4c12.6,13.4,28.3,21.9,46.9,25.8v-46.7h1.3c-4.3-2.5-8.2-5.8-11.6-9.9-8.5-10.4-12.7-23.3-12.7-38.6s4.2-27.9,12.7-38.3c8.5-10.4,20-15.6,34.6-15.6s26.2,5.2,34.8,15.6c8.6,10.4,12.9,23.1,12.9,38.3s-4.3,28.3-12.9,38.6c-3,3.6-6.4,6.6-10.1,8.9-27.1,0-49,22-49,49.1l49.1-1.6c18.5-3.9,34.1-12.4,46.7-25.7,17.9-18.8,26.9-42,26.9-69.4s-9-50.5-26.9-69.2c-17.9-18.7-41.8-28.1-71.5-28.1Z"/>
        <rect class="st13" x="2075.7" y="835.8" width="48.8" height="198.2"/>
        <path class="st13" d="M2075.5,1033.9v49.1h49.1c0-27.1-22-49.1-49.1-49.1Z"/>
        <path class="st13" d="M1911.6,892.7h-49.1v49.1c27.1,0,49.1-22,49.1-49.1Z"/>
        <polygon class="st13" points="1126.1 1034.1 1175 1034.1 1175 884.7 1241 884.7 1241 835.9 1060.1 835.9 1060.1 884.7 1126.1 884.7 1126.1 1034.1"/>
        <path class="st13" d="M1126,1034.1v49h49.1c0-27.1-22-49-49.1-49Z"/>
        <path class="st13" d="M1378.3,909.3c-15.1-11-34.6-16.5-58.4-16.5s-17.1.7-25.1,2.2h0c-5.8,1.1-11.4,2.5-16.8,4.3-5.5,1.6-11.9,3.7-18.6,6.4v42.6c15.9-8.2,30-11.7,39.6-13.3,7.4-1.9,15.9-2.6,24.7-1.2,6.8,1.3,12.6,3.8,17.3,7.4,7.4,5.6,11.2,13.2,11.2,22.7v25c-12.8-15.1-32.4-22.7-58.8-22.7s-32.2,5-45.2,15c-12.9,10-19.4,25-19.4,45s6.6,34.3,19.8,45.2c13.2,10.9,28.1,16.3,44.8,16.3,25.7,0,45.2-7.8,58.5-23.5v19.6h49.1c0-27.1-22-49.2-49.1-49.2v4.2c-8,10.5-20.9,15.8-38.9,15.8s-18.3-2.4-25-7.3c-6.7-4.9-10-11.5-10-20s3.3-15.6,10-20.6c6.7-5,15-7.5,25-7.5,18.2,0,31.3,5.4,39.2,16.2v19.2h48.8v-71.5c0-24.9-7.6-42.8-22.7-53.8Z"/>
        <path class="st13" d="M1483.3,836.3h-49.1v49.1c27.1,0,49.1-22,49.1-49.1Z"/>
        <path class="st13" d="M1987.8,1018.5c-11,14.1-25.1,21.1-42.3,21.1s-34.2-11.4-34.2-34.2v-13.1h.2v-50.4h-48.8v39.2h-.2v43.6c0,18.5,5,32.8,15,43.1,10,10.3,25,15.4,45,15.4s48.4-9.3,65-27.8v27.8h49.1v-190.3h-48.8v125.7Z"/>
      </g>
      <g>
        <polygon class="st13" points="787.8 1080.4 787.8 1080.4 787.8 1080.4 787.8 1080.4"/>
        <path class="st13" d="M714.4,1080.4l-38.5,66.7-16.5,28.6c20.4,8.1,42.6,12.8,65.7,13.3l26-45-36.7-63.6Z"/>
        <path class="st9" d="M770.6,1177.8c18.5-11.1,35.1-25.4,49.1-42.1l-31.9-55.3-36.7,63.6,19.5,33.8Z"/>
        <polygon class="st13" points="787.8 1080.4 787.8 1080.4 714.4 1080.4 751.1 1144 787.8 1080.4"/>
        <polygon class="st7" points="787.8 1080.4 787.8 1080.4 714.4 1080.4 751.1 1144 787.8 1080.4"/>
        <path class="st13" d="M650.2,1022.9h-77s-32.6,0-32.6,0c2.9,22.7,9.8,44.1,19.9,63.6h52.9s36.7-63.6,36.7-63.6Z"/>
        <polygon class="st13" points="686.9 1086.4 686.9 1086.4 650.2 1022.9 686.9 1086.4 686.9 1086.4"/>
        <path class="st8" d="M593.9,1120.2c18.9,10.4,39.5,17.7,61,21.5l31.9-55.3h-73.4s-19.5,33.8-19.5,33.8Z"/>
        <polygon class="st13" points="686.9 1086.4 686.9 1086.4 650.2 1022.9 613.5 1086.4 686.9 1086.4"/>
        <polygon class="st2" points="686.9 1086.4 686.9 1086.4 650.2 1022.9 613.5 1086.4 686.9 1086.4"/>
        <path class="st13" d="M667.9,938.4l-38.5-66.7-14.6-25.4c-17.8,13.5-33.1,30-45.3,48.8l25,43.3h73.4Z"/>
        <path class="st4" d="M555.4,938.4c.4,21.6,4.5,43,11.9,63.6h63.8s-36.7-63.6-36.7-63.6h-39Z"/>
        <polygon class="st13" points="631.2 1002 667.9 938.4 594.5 938.4 631.2 1002"/>
        <polygon class="st5" points="631.2 1002 667.9 938.4 594.5 938.4 631.2 1002"/>
        <path class="st13" d="M749.8,911.6l38.5-66.7,13.2-22.9c-20.3-8.3-42.3-13.1-65.4-13.9l-23.1,39.9,36.7,63.6Z"/>
        <polygon class="st13" points="676.4 911.6 676.4 911.6 676.4 911.6 676.4 911.6"/>
        <path class="st0" d="M693.6,814.2c-18.5,11.1-35.1,25.4-49.1,42.1l31.9,55.3,36.7-63.6-19.5-33.8Z"/>
        <polygon class="st13" points="676.4 911.6 676.4 911.6 749.8 911.6 713.1 848 676.4 911.6"/>
        <polygon class="st3" points="676.4 911.6 676.4 911.6 749.8 911.6 713.1 848 676.4 911.6"/>
        <path class="st13" d="M814.1,969.1h77s26.9,0,26.9,0c-3.5-22.8-11.1-44.2-22-63.6h-45.2s-36.7,63.6-36.7,63.6Z"/>
        <polygon class="st13" points="777.4 905.5 777.4 905.5 814.1 969.1 777.4 905.5 777.4 905.5"/>
        <path class="st1" d="M870.3,871.7c-18.9-10.4-39.5-17.7-61-21.5l-31.9,55.3h73.4s19.5-33.8,19.5-33.8Z"/>
        <polygon class="st13" points="777.4 905.5 777.4 905.5 814.1 969.1 850.8 905.5 777.4 905.5"/>
        <polygon class="st6" points="777.4 905.5 777.4 905.5 814.1 969.1 850.8 905.5 777.4 905.5"/>
        <path class="st13" d="M796.4,1053.5l38.5,66.7,15.1,26.1c17.5-14.3,32.4-31.6,43.9-51.1l-24.1-41.7h-73.4Z"/>
        <path class="st10" d="M908.8,1053.5c-.4-21.6-4.5-43-11.9-63.6h-63.8s36.7,63.6,36.7,63.6h39Z"/>
        <polygon class="st13" points="833.1 989.9 796.4 1053.5 869.8 1053.5 833.1 989.9"/>
        <polygon class="st11" points="833.1 989.9 796.4 1053.5 869.8 1053.5 833.1 989.9"/>
      </g>
    </g>
  </g>
</svg>